<svg xmlns="http://www.w3.org/2000/svg" width="32" height="32" viewBox="0 0 32 32" fill="none">
  <defs>
    <linearGradient id="shieldGrad" x1="4" y1="2" x2="28" y2="30" gradientUnits="userSpaceOnUse">
      <stop offset="0%" stop-color="#0ea5e9"/>
      <stop offset="100%" stop-color="#0f172a"/>
    </linearGradient>
    <linearGradient id="docGrad" x1="12" y1="9" x2="22" y2="24" gradientUnits="userSpaceOnUse">
      <stop offset="0%" stop-color="#ffffff"/>
      <stop offset="100%" stop-color="#e2e8f0"/>
    </linearGradient>
  </defs>
  <!-- Shield shape -->
  <path d="M16 2 L28 7 L28 16 C28 23 22.5 28.5 16 30 C9.5 28.5 4 23 4 16 L4 7 Z" fill="url(#shieldGrad)" stroke="#0ea5e9" stroke-width="0.5" stroke-opacity="0.3"/>
  <!-- Document icon -->
  <rect x="11" y="9" width="10" height="14" rx="1.5" fill="url(#docGrad)" opacity="0.95"/>
  <!-- Document fold -->
  <path d="M17.5 9 L21 9 L17.5 12.5 Z" fill="#cbd5e1" opacity="0.7"/>
  <!-- Document lines -->
  <line x1="13.5" y1="14" x2="18.5" y2="14" stroke="#64748b" stroke-width="1" stroke-linecap="round"/>
  <line x1="13.5" y1="16.5" x2="18.5" y2="16.5" stroke="#64748b" stroke-width="1" stroke-linecap="round"/>
  <line x1="13.5" y1="19" x2="16.5" y2="19" stroke="#64748b" stroke-width="1" stroke-linecap="round"/>
  <!-- Checkmark -->
  <circle cx="21" cy="22" r="4.5" fill="#16a34a"/>
  <path d="M18.8 22 L20.2 23.4 L23.2 20.6" stroke="white" stroke-width="1.5" stroke-linecap="round" stroke-linejoin="round" fill="none"/>
</svg>